<?xml version="1.0" encoding="UTF-8" standalone="no"?>
<!-- Created with Inkscape (http://www.inkscape.org/) -->

<svg
   xmlns:dc="http://purl.org/dc/elements/1.1/"
   xmlns:cc="http://creativecommons.org/ns#"
   xmlns:rdf="http://www.w3.org/1999/02/22-rdf-syntax-ns#"
   xmlns:svg="http://www.w3.org/2000/svg"
   xmlns="http://www.w3.org/2000/svg"
   xmlns:sodipodi="http://sodipodi.sourceforge.net/DTD/sodipodi-0.dtd"
   xmlns:inkscape="http://www.inkscape.org/namespaces/inkscape"
   version="1.1"
   id="svg2"
   xml:space="preserve"
   width="1024"
   height="1024"
   viewBox="0 0 1024 1023.9999"
   sodipodi:docname="Logo.svg"
   inkscape:version="0.92.2 5c3e80d, 2017-08-06"
   inkscape:export-filename="/home/achilleas/code/GCA-iOS/BC17.data/AppIcon.png"
   inkscape:export-xdpi="96"
   inkscape:export-ydpi="96"><metadata
     id="metadata8"><rdf:RDF><cc:Work
         rdf:about=""><dc:format>image/svg+xml</dc:format><dc:type
           rdf:resource="http://purl.org/dc/dcmitype/StillImage" /><dc:title></dc:title></cc:Work></rdf:RDF></metadata><defs
     id="defs6" /><sodipodi:namedview
     pagecolor="#ffffff"
     bordercolor="#666666"
     borderopacity="1"
     objecttolerance="10"
     gridtolerance="10"
     guidetolerance="10"
     inkscape:pageopacity="1"
     inkscape:pageshadow="2"
     inkscape:window-width="2560"
     inkscape:window-height="1374"
     id="namedview4"
     showgrid="false"
     fit-margin-top="0"
     fit-margin-left="0"
     fit-margin-right="0"
     fit-margin-bottom="0"
     inkscape:zoom="0.38211055"
     inkscape:cx="1534.0209"
     inkscape:cy="63.376022"
     inkscape:window-x="2560"
     inkscape:window-y="42"
     inkscape:window-maximized="1"
     inkscape:current-layer="g10"
     units="px" /><g
     id="g10"
     inkscape:groupmode="layer"
     inkscape:label="ink_ext_XXXXXX"
     transform="matrix(1.3333333,0,0,-1.3333333,-142.61245,1158.9908)"><path
       inkscape:connector-curvature="0"
       id="path32"
       style="fill:#1c4f9c;fill-opacity:1;fill-rule:nonzero;stroke:none;stroke-width:0.0786951"
       d="m 663.65705,538.1317 c 0,-36.56804 -27.2285,-66.21721 -60.80377,-66.21721 -33.58392,0 -60.80377,29.64917 -60.80377,66.21721 0,36.58692 27.21985,66.2534 60.80377,66.2534 33.57527,0 60.80377,-29.66648 60.80377,-66.2534" /><path
       inkscape:connector-curvature="0"
       id="path34"
       style="fill:#1c4f9c;fill-opacity:1;fill-rule:nonzero;stroke:none;stroke-width:0.0786951"
       d="m 492.26069,486.84688 c 0,-34.59672 -27.22063,-62.63343 -60.81321,-62.63343 -33.57448,0 -60.79512,28.03671 -60.79512,62.63343 0,34.59673 27.22064,62.63186 60.79512,62.63186 33.59258,0 60.81321,-28.03513 60.81321,-62.63186" /><path
       inkscape:connector-curvature="0"
       id="path36"
       style="fill:#1c4f9c;fill-opacity:1;fill-rule:nonzero;stroke:none;stroke-width:0.0786951"
       d="m 537.12005,612.91801 c 0,-25.40041 -20.52526,-45.99728 -45.87216,-45.99728 -25.32881,0 -45.87217,20.59687 -45.87217,45.99728 0,25.40121 20.54336,45.99729 45.87217,45.99729 25.3469,0 45.87216,-20.59608 45.87216,-45.99729" /><path
       inkscape:connector-curvature="0"
       id="path38"
       style="fill:#1c4f9c;fill-opacity:1;fill-rule:nonzero;stroke:none;stroke-width:0.0786951"
       d="m 589.17607,412.83099 c 0,-25.40042 -20.53391,-45.9784 -45.87137,-45.9784 -25.33904,0 -45.87217,20.57798 -45.87217,45.9784 0,25.40121 20.53313,45.99808 45.87217,45.99808 25.33746,0 45.87137,-20.59687 45.87137,-45.99808" /><path
       inkscape:connector-curvature="0"
       id="path40"
       style="fill:#2857af;fill-opacity:1;fill-rule:nonzero;stroke:none;stroke-width:0.0786951"
       d="m 604.62864,678.18537 c 0,-17.15474 -13.88417,-31.06489 -31.01216,-31.06489 -17.12799,0 -31.01138,13.91015 -31.01138,31.06489 0,17.15554 13.88339,31.06568 31.01138,31.06568 17.12799,0 31.01216,-13.91014 31.01216,-31.06568" /><path
       inkscape:connector-curvature="0"
       id="path42"
       style="fill:#2857af;fill-opacity:1;fill-rule:nonzero;stroke:none;stroke-width:0.0786951"
       d="m 410.67197,613.29418 c -0.75311,-17.15475 -17.31607,-30.34798 -36.98119,-29.48785 -19.66433,0.87824 -34.99021,15.48799 -34.21978,32.62463 0.75311,17.15554 17.30741,30.34877 36.96309,29.48863 19.67378,-0.87823 34.99099,-15.46988 34.23788,-32.62541" /><path
       inkscape:connector-curvature="0"
       id="path44"
       style="fill:#5788c2;fill-opacity:1;fill-rule:nonzero;stroke:none;stroke-width:0.0786951"
       d="m 353.65028,690.23202 c -0.98605,-11.6878 -14.10767,-20.131 -29.29976,-18.8404 -15.20074,1.2725 -26.70912,11.79483 -25.71362,23.50072 0.98526,11.6878 14.10688,20.13021 29.28953,18.8404 15.20074,-1.29139 26.7099,-11.81371 25.72385,-23.50072" /><path
       inkscape:connector-curvature="0"
       id="path46"
       style="fill:#5788c2;fill-opacity:1;fill-rule:nonzero;stroke:none;stroke-width:0.0786951"
       d="m 794.49711,655.725 c -1.07576,-12.61954 -14.94971,-21.74424 -30.99328,-20.38203 -16.04357,1.36221 -28.19724,12.69116 -27.12227,25.31071 1.06711,12.62033 14.94184,21.76234 30.99407,20.40013 16.04357,-1.36221 28.19724,-12.69195 27.12148,-25.32881" /><path
       inkscape:connector-curvature="0"
       id="path48"
       style="fill:#2857af;fill-opacity:1;fill-rule:nonzero;stroke:none;stroke-width:0.0786951"
       d="m 718.11564,642.40586 c 5.5118,-14.03606 -6.07684,-31.7464 -25.90249,-39.52619 -19.817,-7.7798 -40.35092,-2.70711 -45.86351,11.34704 -5.52991,14.05338 6.06818,31.7464 25.87652,39.52619 19.83432,7.7798 40.36823,2.70633 45.88948,-11.34704" /><path
       inkscape:connector-curvature="0"
       id="path50"
       style="fill:#5788c2;fill-opacity:1;fill-rule:nonzero;stroke:none;stroke-width:0.0786951"
       d="m 624.11355,751.84242 c -1.55108,-11.0244 -15.12913,-18.24861 -30.33067,-16.11519 -15.21019,2.13264 -26.27,12.79897 -24.72836,23.84147 1.5503,11.0244 15.13858,18.24782 30.32988,16.1144 15.21019,-2.15074 26.27079,-12.81629 24.72915,-23.84068" /><path
       inkscape:connector-curvature="0"
       id="path52"
       style="fill:#bbd9f3;fill-opacity:1;fill-rule:nonzero;stroke:none;stroke-width:0.0786951"
       d="m 604.12657,827.11271 c -0.91444,-9.44735 -11.22192,-16.15138 -22.99943,-15.0048 -11.77672,1.14816 -20.57799,9.73459 -19.64624,19.18115 0.91366,9.42846 11.22114,16.15059 22.98999,14.98591 11.78617,-1.14738 20.58743,-9.7338 19.65568,-19.16226" /><path
       inkscape:connector-curvature="0"
       id="path54"
       style="fill:#bbd9f3;fill-opacity:1;fill-rule:nonzero;stroke:none;stroke-width:0.0786951"
       d="m 282.85302,745.04867 c -0.70826,-8.4613 -11.60753,-14.46652 -24.31679,-13.37266 -12.70926,1.07576 -22.42495,8.80126 -21.72614,17.26256 0.71691,8.46051 11.61618,14.44763 24.32544,13.37266 12.70926,-1.07577 22.4344,-8.80126 21.71749,-17.26256" /><path
       inkscape:connector-curvature="0"
       id="path56"
       style="fill:#bbd9f3;fill-opacity:1;fill-rule:nonzero;stroke:none;stroke-width:0.0786951"
       d="m 874.9479,674.17035 c -0.43046,-10.16426 -12.81707,-17.90786 -27.67707,-17.28066 -14.84268,0.6272 -26.53048,9.35764 -26.10946,19.53921 0.42181,10.14616 12.80841,17.88976 27.66841,17.26256 14.84268,-0.62799 26.54779,-9.37495 26.11812,-19.52111" /><path
       inkscape:connector-curvature="0"
       id="path58"
       style="fill:#2857af;fill-opacity:1;fill-rule:nonzero;stroke:none;stroke-width:0.0786951"
       d="m 490.38696,338.8694 c 0,-18.768 -17.92517,-34.00494 -40.01882,-34.00494 -22.09286,0 -40.01882,15.23694 -40.01882,34.00494 0,18.76878 17.92596,33.98763 40.01882,33.98763 22.09365,0 40.01882,-15.21885 40.01882,-33.98763" /><path
       inkscape:connector-curvature="0"
       id="path60"
       style="fill:#2857af;fill-opacity:1;fill-rule:nonzero;stroke:none;stroke-width:0.0786951"
       d="m 384.10608,396.39394 c 10.60337,-19.89884 5.78959,-43.18315 -10.75526,-51.98519 -16.54565,-8.81936 -38.54959,0.17942 -49.15218,20.09479 -10.59472,19.91537 -5.79038,43.18237 10.75526,52.00251 16.54486,8.80205 38.54014,-0.19752 49.15218,-20.11211" /><path
       inkscape:connector-curvature="0"
       id="path62"
       style="fill:#5788c2;fill-opacity:1;fill-rule:nonzero;stroke:none;stroke-width:0.0786951"
       d="m 290.06779,374.82913 c 12.14423,-11.59809 14.80648,-28.52068 5.95092,-37.82323 -8.86343,-9.28602 -25.90249,-7.42174 -38.05616,4.17635 -12.14423,11.57998 -14.8057,28.50179 -5.95093,37.80591 8.87288,9.28524 25.9025,7.42095 38.05617,-4.15903" /><path
       inkscape:connector-curvature="0"
       id="path64"
       style="fill:#5788c2;fill-opacity:1;fill-rule:nonzero;stroke:none;stroke-width:0.0786951"
       d="m 446.70252,235.47426 c 7.35799,-10.41451 24.25383,-11.14952 37.75162,-1.63135 13.47968,9.51896 18.44534,25.68766 11.09601,36.10217 -7.36744,10.4334 -24.25305,11.15031 -37.75162,1.63135 -13.48047,-9.51896 -18.44534,-25.68687 -11.09601,-36.10217" /><path
       inkscape:connector-curvature="0"
       id="path66"
       style="fill:#63a1d9;fill-opacity:1;fill-rule:nonzero;stroke:none;stroke-width:0.0786951"
       d="m 512.90242,193.76114 c 1.81864,-9.48308 -7.33124,-19.21633 -20.44499,-21.74386 -13.11218,-2.5099 -25.21234,3.13711 -27.03177,12.63734 -1.81943,9.48346 7.32258,19.21648 20.4442,21.72606 13.10431,2.50959 25.20447,-3.13678 27.03256,-12.61954" /><path
       inkscape:connector-curvature="0"
       id="path68"
       style="fill:#bbd9f3;fill-opacity:1;fill-rule:nonzero;stroke:none;stroke-width:0.0786951"
       d="m 525.18121,130.75217 c 0.75312,-8.62168 -8.01273,-16.40207 -19.55652,-17.40574 -11.54457,-0.98615 -21.5113,5.19818 -22.24631,13.82086 -0.75312,8.62262 8.01273,16.40148 19.5573,17.40571 11.54379,1.00367 21.51052,-5.19876 22.24553,-13.82083" /><path
       inkscape:connector-curvature="0"
       id="path70"
       style="fill:#63a1d9;fill-opacity:1;fill-rule:nonzero;stroke:none;stroke-width:0.0786951"
       d="m 228.24177,317.5202 c -5.05538,-8.08434 -21.3492,-7.02747 -36.40672,2.36637 -15.0576,9.39304 -23.17823,23.57233 -18.1408,31.63857 5.05459,8.10245 21.3492,7.04479 36.40751,-2.34826 15.06618,-9.39304 23.17728,-23.57154 18.14001,-31.65668" /><path
       inkscape:connector-curvature="0"
       id="path72"
       style="fill:#bbd9f3;fill-opacity:1;fill-rule:nonzero;stroke:none;stroke-width:0.0786951"
       d="m 159.13873,294.8088 c -4.30273,-6.88346 -19.19885,-5.34183 -33.28834,3.44133 -14.08953,8.78395 -22.01283,21.49242 -17.72826,28.37667 4.30211,6.88267 19.19789,5.35992 33.28769,-3.44212 14.08958,-8.78316 22.01284,-21.49242 17.72891,-28.37588" /></g></svg>